<svg xmlns="http://www.w3.org/2000/svg" viewBox="0 0 34 25" width="34" height="25">
	<style>
		tspan { white-space:pre }
		.shp0 { fill: #0b2a37 } 
	</style>
	<g id="top-menu-white-2">
		<path id="hamburger-menu-icon" class="shp0" d="M3.5 1L30.5 1C31.33 1 32 1.67 32 2.5C32 3.33 31.33 4 30.5 4L3.5 4C2.67 4 2 3.33 2 2.5C2 1.67 2.67 1 3.5 1ZM3.5 11L30.5 11C31.33 11 32 11.67 32 12.5C32 13.33 31.33 14 30.5 14L3.5 14C2.67 14 2 13.33 2 12.5C2 11.67 2.67 11 3.5 11ZM3.5 21L30.5 21C31.33 21 32 21.67 32 22.5C32 23.33 31.33 24 30.5 24L3.5 24C2.67 24 2 23.33 2 22.5C2 21.67 2.67 21 3.5 21Z" />
	</g>
</svg>