<svg xmlns="http://www.w3.org/2000/svg" viewBox="0 0 19 33" width="19" height="33">
	<style>
		tspan { white-space:pre }
		.shp0 { fill: #ffffff } 
	</style>
	<g id="how-it-works">
		<g id="steps">
			<g id="step-4-pay">
				<path id="Shape 1" class="shp0" d="M13.21 14.72C12.08 14.07 10.87 13.58 9.67 13.06C8.98 12.76 8.32 12.42 7.73 11.93C6.58 10.98 6.8 9.43 8.15 8.82C8.53 8.64 8.93 8.59 9.34 8.56C10.91 8.48 12.39 8.77 13.81 9.48C14.52 9.83 14.75 9.72 14.99 8.96C15.24 8.15 15.45 7.34 15.68 6.52C15.84 5.98 15.65 5.62 15.15 5.39C14.24 4.98 13.31 4.68 12.33 4.52C11.05 4.31 11.05 4.31 11.04 2.97C11.04 1.1 11.04 1.1 9.22 1.1C8.96 1.1 8.69 1.09 8.43 1.1C7.58 1.12 7.44 1.28 7.41 2.16C7.4 2.56 7.41 2.96 7.41 3.36C7.4 4.54 7.4 4.52 6.31 4.93C3.68 5.92 2.05 7.78 1.88 10.75C1.72 13.38 3.05 15.16 5.14 16.46C6.42 17.26 7.84 17.73 9.21 18.35C9.74 18.59 10.25 18.87 10.69 19.26C12 20.38 11.76 22.24 10.21 22.95C9.37 23.33 8.5 23.42 7.59 23.3C6.2 23.12 4.87 22.75 3.61 22.07C2.88 21.67 2.66 21.78 2.41 22.6C2.19 23.32 2 24.03 1.81 24.75C1.55 25.72 1.65 25.95 2.54 26.4C3.68 26.97 4.89 27.26 6.13 27.47C7.1 27.63 7.13 27.67 7.14 28.71C7.14 29.18 7.14 29.66 7.15 30.13C7.16 30.73 7.43 31.07 8.02 31.08C8.69 31.1 9.37 31.1 10.04 31.08C10.59 31.07 10.87 30.76 10.87 30.18C10.87 29.54 10.9 28.89 10.88 28.24C10.85 27.58 11.12 27.25 11.73 27.08C13.14 26.68 14.33 25.9 15.25 24.73C17.81 21.51 16.84 16.8 13.21 14.72Z" />
			</g>
		</g>
	</g>
</svg>