<svg xmlns="http://www.w3.org/2000/svg" viewBox="0 0 34 32" width="34" height="32">
	<style>
		tspan { white-space:pre }
		.shp0 { opacity: 0.502;fill: #ffffff } 
	</style>
	<g id="footer">
		<path id="FB-icon" class="shp0" d="M24.48 1L9.5 1C5.38 1 2 4.38 2 8.52L2 23.5C2 27.62 5.38 31 9.5 31L24.48 31C28.62 31 32 27.62 32 23.48L32 8.52C32 4.38 28.62 1 24.48 1ZM21.02 16L18.19 16L18.19 25.29L14.62 25.29L14.62 16L12.71 16L12.71 12.19L14.38 12.19L14.38 10.57C14.38 9.05 15.14 6.64 18.36 6.64L21.29 6.64L21.29 9.81L19.21 9.81C18.88 9.81 18.43 10.02 18.43 10.76L18.43 12.19L21.36 12.19L21.02 16Z" />
	</g>
</svg>