<svg xmlns="http://www.w3.org/2000/svg" viewBox="0 0 34 32" width="34" height="32">
	<style>
		tspan { white-space:pre }
		.shp0 { opacity: 0.502;fill: #ffffff } 
	</style>
	<g id="footer">
		<path id="in-icon" class="shp0" d="M24.46 1L9.52 1C5.38 1 2 4.38 2 8.52L2 23.5C2 27.62 5.38 31 9.52 31L24.48 31C28.62 31 32 27.62 32 23.48L32 8.52C31.98 4.38 28.6 1 24.46 1ZM11.99 25.29L7.71 25.29L7.71 12.9L11.99 12.9L11.99 25.29ZM9.83 11C8.61 11 7.64 10.02 7.64 8.81C7.64 7.6 8.61 6.62 9.83 6.62C11.04 6.62 12.02 7.6 12.02 8.81C11.99 10.02 11.02 11 9.83 11ZM26.29 25.29L26.27 25.29L22.7 25.29L22.7 19.29C22.7 17.83 22.51 15.98 20.53 15.98C18.51 15.98 18.18 17.55 18.18 19.19L18.18 25.29L14.61 25.29L14.61 12.9L17.94 12.9L17.94 14.57L18.03 14.57C18.56 13.62 19.77 12.88 21.67 12.88C25.6 12.88 26.29 15.14 26.29 18.5L26.29 25.29L26.29 25.29Z" />
	</g>
</svg>