<svg xmlns="http://www.w3.org/2000/svg" viewBox="0 0 24 25" width="24" height="25">
	<style>
		tspan { white-space:pre }
		.shp0 { fill: #ffffff } 
	</style>
	<g id="how-it-works">
		<g id="steps">
			<g id="step-2-select">
				<path id="Forma 1" class="shp0" d="M1.15 1.15L1.14 1.15C1.04 1.26 1.01 1.43 1.06 1.57L8.24 21.15C8.3 21.3 8.43 21.4 8.59 21.4C8.74 21.41 8.88 21.31 8.94 21.16L11.22 15.42L18.33 22.86C18.54 23.09 18.89 23.09 19.1 22.86C19.87 22.07 21.11 20.76 21.87 19.96C22.08 19.74 22.08 19.38 21.87 19.15L14.77 11.71L20.25 9.31C20.39 9.25 20.48 9.11 20.48 8.95L20.48 8.95C20.48 8.79 20.38 8.64 20.24 8.59L1.55 1.06C1.41 1 1.26 1.04 1.15 1.15Z" />
			</g>
		</g>
	</g>
</svg>