<svg xmlns="http://www.w3.org/2000/svg" viewBox="0 0 713 571" width="713" height="571">
	<style>
		tspan { white-space:pre }
		.shp0 { opacity: 0.161;fill: #ffffff } 
	</style>
	<g id="our-preferences">
		<path id="logo-shape" class="shp0" d="M402.82 467.86C358.41 363.53 280.88 370.72 271.04 370.68C257.06 370.62 176.32 337.83 154.99 338.59C149 340.16 140.54 343.5 135.62 350.29C117.99 374.61 155.11 397.4 160.14 400.78C184.83 417.35 252.27 434.43 252.27 434.43C256.4 434.35 259.8 437.63 259.88 441.76C259.95 445.88 256.67 449.29 252.54 449.36C252.54 449.36 194.71 440.87 163.42 417.46C157.34 412.91 122.99 389.22 114.63 376.73C81.67 327.54 76.79 307.82 54.78 247.69C51.38 238.41 41.3 224.88 22.04 227.94C1.59 231.19 3.78 256.89 4.5 264.2C12.37 343.79 62.04 438.12 125.8 482.27C174.78 516.19 223.75 537.18 321.95 543.03C380.51 546.52 445.22 569.48 445.22 569.48C445.22 569.48 430.52 532.94 402.82 467.86ZM445.22 569.48C445.22 569.48 489.78 517.24 538.75 484.94C620.87 430.77 652.78 388.11 678.24 334.24C711.38 264.13 707.23 157.6 674.25 84.74C671.23 78.05 660.27 54.7 640.93 62.11C622.73 69.09 620.76 85.85 622.46 95.59C633.46 158.66 639.09 178.18 635.15 237.26C634.15 252.26 616.25 289.94 613.26 296.92C597.87 332.85 552.03 369.12 552.03 369.12C548.41 371.11 543.87 369.81 541.87 366.2C539.87 362.59 541.18 358.05 544.8 356.05C544.8 356.05 594.66 307.54 607.76 280.84C610.42 275.4 631.18 237.1 603.75 224.86C596.09 221.44 587.09 222.77 581.12 224.41C562.27 234.42 508.74 303.18 496.66 310.22C488.17 315.18 417.43 347.71 431.13 460.28C439.68 530.48 445.22 569.48 445.22 569.48ZM79.67 238.59C82.5 246.31 85.05 253.38 87.41 259.92C98.52 290.73 105.04 308.83 117.32 330.86C124.73 322.59 135.19 316.5 147.87 313.1L148.27 312.99L151.13 312.24L154.08 312.14C169.79 311.58 194.72 319.44 233.9 332.44C247.58 336.98 266.14 343.14 272.02 344.19C272.12 344.19 272.22 344.19 272.33 344.19C281.2 343.98 308.2 343.34 339.14 357.96C364.42 369.91 385.98 388.78 403.62 414.24C406.18 383.37 415.41 356.24 431.33 333.26C450.81 305.13 474.51 292.18 482.3 287.93C482.39 287.87 482.48 287.83 482.57 287.78C487.14 283.93 500.13 269.31 509.71 258.54C537.14 227.69 554.8 208.42 568.69 201.04L571.29 199.66L574.14 198.88L574.54 198.77C587.22 195.38 599.32 195.43 609.88 198.88C609.5 173.65 606.1 154.72 600.32 122.49C599.09 115.64 597.76 108.25 596.35 100.15C593.71 85.01 596.84 67.56 607.8 54.14C568.08 17.88 514.1 1.99 455.1 17.8C391.28 34.9 348.07 75.72 324.43 118.7C282.48 93.3 224.98 79.46 157.82 97.45C99.06 113.2 61.38 153.41 45.86 204.15C62.53 210.13 74.29 223.89 79.67 238.59Z" />
	</g>
</svg>