<svg xmlns="http://www.w3.org/2000/svg" viewBox="0 0 25 28" width="25" height="28">
	<style>
		tspan { white-space:pre }
		.shp0 { fill: #ffffff } 
	</style>
	<g id="how-it-works">
		<g id="steps">
			<g id="step 3-test">
				<path id="Forma 1" class="shp0" d="M21.5 4.02L22.94 4.02C23.52 4.02 23.98 3.54 23.98 2.93L23.98 2.09C23.98 1.49 23.52 1 22.94 1L3.01 1C2.44 1 1.98 1.49 1.98 2.09L1.98 2.93C1.98 3.54 2.44 4.02 3.01 4.02L4.46 4.02C4.56 8.07 6.1 11.76 8.46 13.87C6.04 16.03 4.49 19.84 4.45 24.02L3.01 24.02C2.44 24.02 1.98 24.51 1.98 25.11L1.98 25.91C1.98 26.51 2.44 27 3.01 27L22.94 27C23.52 27 23.98 26.51 23.98 25.91L23.98 25.11C23.98 24.51 23.52 24.02 22.94 24.02L21.5 24.02C21.46 19.84 19.92 16.04 17.5 13.87C19.86 11.76 21.39 8.07 21.5 4.02ZM14.78 14.78L15.17 14.99C17.79 16.35 19.56 19.93 19.61 24.02L6.35 24.02C6.4 19.93 8.17 16.35 10.79 14.99L11.17 14.79C11.51 14.62 11.72 14.25 11.72 13.86C11.72 13.47 11.51 13.11 11.17 12.93L10.79 12.74C8.23 11.42 6.48 7.93 6.35 4.02L19.61 4.02C19.48 7.93 17.73 11.42 15.17 12.74L14.78 12.93C14.45 13.11 14.24 13.46 14.24 13.86C14.24 14.25 14.45 14.61 14.78 14.78ZM8.77 23L17.74 23C17.44 20.69 15.56 18.86 13.26 18.86C10.96 18.86 9.08 20.69 8.77 23ZM16.33 10.56L9.61 10.56C10.44 11.53 11.63 12.16 12.97 12.16C14.32 12.16 15.5 11.53 16.33 10.56Z" />
			</g>
		</g>
	</g>
</svg>