<svg xmlns="http://www.w3.org/2000/svg" viewBox="0 0 34 34" width="34" height="34">
	<style>
		tspan { white-space:pre }
		.shp0 { fill: #ffffff } 
	</style>
	<g id="how-it-works">
		<g id="steps">
			<g id="step-1-search">
				<path id="Forma 1" class="shp0" d="M31.63 29.87L24.42 22.66C26.21 20.48 27.29 17.69 27.29 14.64C27.29 7.66 21.62 2 14.64 2C7.66 2 2 7.66 2 14.64C2 21.62 7.66 27.29 14.64 27.29C17.69 27.29 20.47 26.21 22.65 24.43L29.86 31.63C30.35 32.12 31.14 32.12 31.63 31.63C32.12 31.15 32.12 30.35 31.63 29.87ZM14.64 24.77C9.05 24.77 4.51 20.23 4.51 14.64C4.51 9.06 9.05 4.51 14.64 4.51C20.23 4.51 24.77 9.06 24.77 14.64C24.77 20.23 20.23 24.77 14.64 24.77Z" />
			</g>
		</g>
	</g>
</svg>