<svg xmlns="http://www.w3.org/2000/svg" viewBox="0 0 34 32" width="34" height="32">
	<style>
		tspan { white-space:pre }
		.shp0 { opacity: 0.502;fill: #ffffff } 
	</style>
	<g id="footer">
		<path id="TW-icon" class="shp0" d="M24.46 1L9.52 1C5.38 1 2 4.38 2 8.52L2 23.5C2 27.62 5.38 31 9.52 31L24.48 31C28.62 31 32 27.62 32 23.48L32 8.52C31.98 4.38 28.6 1 24.46 1ZM24.43 12.24C24.43 12.4 24.43 12.57 24.43 12.74C24.43 17.74 20.58 23.5 13.51 23.5C11.35 23.5 9.33 22.88 7.64 21.81C7.95 21.83 8.23 21.86 8.54 21.86C10.35 21.86 11.99 21.26 13.3 20.24C11.61 20.21 10.21 19.12 9.71 17.62C9.95 17.67 10.18 17.69 10.42 17.69C10.78 17.69 11.14 17.64 11.44 17.55C9.73 17.19 8.42 15.67 8.42 13.83L8.42 13.79C8.9 14.07 9.52 14.24 10.14 14.26C9.11 13.6 8.42 12.43 8.42 11.12C8.42 10.43 8.61 9.79 8.95 9.21C10.85 11.5 13.66 13 16.85 13.17C16.77 12.88 16.75 12.6 16.75 12.31C16.75 10.21 18.46 8.52 20.58 8.52C21.67 8.52 22.67 8.98 23.39 9.71C24.27 9.55 25.08 9.24 25.81 8.79C25.53 9.67 24.91 10.4 24.13 10.88C24.91 10.79 25.65 10.6 26.34 10.29C25.81 11.05 25.17 11.71 24.43 12.24Z" />
	</g>
</svg>